<svg xmlns="http://www.w3.org/2000/svg" viewBox="0 0 300 300" width="300" height="300" id="lottie-err-animation" preserveAspectRatio="xMidYMid meet" style="width: 100%; height: 100%; transform: translate3d(0px, 0px, 0px);"><defs><clipPath id="__lottie_element_2"><rect width="300" height="300" x="0" y="0"></rect></clipPath><clipPath id="__lottie_element_4">
<path d="M0,0 L300,0 L300,300 L0,300z"></path></clipPath><clipPath id="__lottie_element_38">
<path d="M0,0 L300,0 L300,300 L0,300z"></path></clipPath><clipPath id="__lottie_element_84">
<path d="M0,0 L300,0 L300,300 L0,300z"></path></clipPath><clipPath id="__lottie_element_106">
<path d="M0,0 L300,0 L300,300 L0,300z"></path></clipPath><clipPath id="__lottie_element_128">
<path d="M0,0 L50,0 L50,50 L0,50z"></path></clipPath><clipPath id="__lottie_element_132">
<path d="M0,0 L50,0 L50,50 L0,50z"></path></clipPath><clipPath id="__lottie_element_145">
<path d="M0,0 L50,0 L50,50 L0,50z"></path></clipPath><clipPath id="__lottie_element_158">
<path d="M0,0 L50,0 L50,50 L0,50z"></path></clipPath><clipPath id="__lottie_element_171">
<path d="M0,0 L50,0 L50,50 L0,50z"></path></clipPath><clipPath id="__lottie_element_184">
<path d="M0,0 L50,0 L50,50 L0,50z"></path></clipPath><clipPath id="__lottie_element_197">
<path d="M0,0 L50,0 L50,50 L0,50z"></path></clipPath><clipPath id="__lottie_element_210">
<path d="M0,0 L50,0 L50,50 L0,50z"></path></clipPath><clipPath id="__lottie_element_223">
<path d="M0,0 L50,0 L50,50 L0,50z"></path></clipPath><clipPath id="__lottie_element_236">
<path d="M0,0 L50,0 L50,50 L0,50z"></path></clipPath><clipPath id="__lottie_element_249">
<path d="M0,0 L50,0 L50,50 L0,50z"></path></clipPath><clipPath id="__lottie_element_262">
<path d="M0,0 L50,0 L50,50 L0,50z"></path></clipPath><clipPath id="__lottie_element_275">
<path d="M0,0 L50,0 L50,50 L0,50z"></path></clipPath><clipPath id="__lottie_element_306">
<path d="M0,0 L300,0 L300,300 L0,300z"></path></clipPath></defs><g clip-path="url(#__lottie_element_2)"><g clip-path="url(#__lottie_element_306)" transform="matrix(1,0,0,1,0,0)" opacity="1" style="display: block;"><g class="color1" transform="matrix(1,0,0,1,-92,-115)" opacity="1" style="display: block;">
<path class="color1" fill="rgb(24,29,30)" fill-opacity="1" d=" M164.1999969482422,192.85000610351562 C162.8990020751953,192.6820068359375 161.73199462890625,192.08200073242188 160.6999969482422,191.0500030517578 C159.61300659179688,189.96299743652344 159.01300048828125,188.6300048828125 158.89999389648438,187.0500030517578 C158.802001953125,188.61000061035156 158.16799926757812,189.9429931640625 157,191.0500030517578 C156.0050048828125,192.10000610351562 154.80499267578125,192.6999969482422 153.39999389648438,192.85000610351562 C154.76199340820312,193.07899475097656 155.92799377441406,193.67799377441406 156.89999389648438,194.64999389648438 C158.04600524902344,195.79600524902344 158.6790008544922,197.1300048828125 158.8000030517578,198.64999389648438 C158.91299438476562,197.13099670410156 159.51300048828125,195.7969970703125 160.60000610351562,194.64999389648438 C161.6580047607422,193.64700317382812 162.85800170898438,193.04800415039062 164.1999969482422,192.85000610351562z"></path></g><g class="color1" transform="matrix(1,0,0,1,17.5,-156.5)" opacity="1" style="display: block;">
<path class="color1" fill="rgb(24,29,30)" fill-opacity="1" d=" M164.1999969482422,192.85000610351562 C162.8990020751953,192.6820068359375 161.73199462890625,192.08200073242188 160.6999969482422,191.0500030517578 C159.61300659179688,189.96299743652344 159.01300048828125,188.6300048828125 158.89999389648438,187.0500030517578 C158.802001953125,188.61000061035156 158.16799926757812,189.9429931640625 157,191.0500030517578 C156.0050048828125,192.10000610351562 154.80499267578125,192.6999969482422 153.39999389648438,192.85000610351562 C154.76199340820312,193.07899475097656 155.92799377441406,193.67799377441406 156.89999389648438,194.64999389648438 C158.04600524902344,195.79600524902344 158.6790008544922,197.1300048828125 158.8000030517578,198.64999389648438 C158.91299438476562,197.13099670410156 159.51300048828125,195.7969970703125 160.60000610351562,194.64999389648438 C161.6580047607422,193.64700317382812 162.85800170898438,193.04800415039062 164.1999969482422,192.85000610351562z"></path></g><g class="color1" transform="matrix(1,0,0,1,123.5,-92.5)" opacity="1" style="display: block;">
<path class="color1" fill="rgb(24,29,30)" fill-opacity="1" d=" M164.1999969482422,192.85000610351562 C162.8990020751953,192.6820068359375 161.73199462890625,192.08200073242188 160.6999969482422,191.0500030517578 C159.61300659179688,189.96299743652344 159.01300048828125,188.6300048828125 158.89999389648438,187.0500030517578 C158.802001953125,188.61000061035156 158.16799926757812,189.9429931640625 157,191.0500030517578 C156.0050048828125,192.10000610351562 154.80499267578125,192.6999969482422 153.39999389648438,192.85000610351562 C154.76199340820312,193.07899475097656 155.92799377441406,193.67799377441406 156.89999389648438,194.64999389648438 C158.04600524902344,195.79600524902344 158.6790008544922,197.1300048828125 158.8000030517578,198.64999389648438 C158.91299438476562,197.13099670410156 159.51300048828125,195.7969970703125 160.60000610351562,194.64999389648438 C161.6580047607422,193.64700317382812 162.85800170898438,193.04800415039062 164.1999969482422,192.85000610351562z"></path></g><g class="color1" transform="matrix(1,0,0,1,106.5,-55.5)" opacity="1" style="display: block;">
<path class="color1" fill="rgb(24,29,30)" fill-opacity="1" d=" M-5.789000034332275,84.4469985961914 C-5.789000034332275,83.4800033569336 -6.15500020980835,82.64700317382812 -6.888999938964844,81.9469985961914 C-7.556000232696533,81.24700164794922 -8.388999938964844,80.89700317382812 -9.388999938964844,80.89700317382812 C-10.354999542236328,80.89700317382812 -11.187999725341797,81.24700164794922 -11.888999938964844,81.9469985961914 C-12.58899974822998,82.64700317382812 -12.937999725341797,83.4800033569336 -12.937999725341797,84.4469985961914 C-12.937999725341797,85.4469985961914 -12.58899974822998,86.27999877929688 -11.888999938964844,86.9469985961914 C-11.187999725341797,87.68000030517578 -10.354999542236328,88.0469970703125 -9.388999938964844,88.0469970703125 C-8.388999938964844,88.0469970703125 -7.556000232696533,87.68000030517578 -6.888999938964844,86.9469985961914 C-6.15500020980835,86.27999877929688 -5.789000034332275,85.4469985961914 -5.789000034332275,84.4469985961914z"></path></g></g><g class="color1" transform="matrix(1,0,0,1,150,151.46194458007812)" opacity="1" style="display: block;"><g class="color1" opacity="1" transform="matrix(1,0,0,1,0,0)">
<path stroke-linecap="round" stroke-linejoin="round" fill-opacity="0" class="color1" stroke="rgb(24,28,29)" stroke-opacity="1" stroke-width="2" d=" M-136,79 C-62,64 52,60 137,78"></path></g></g><g class="color1" transform="matrix(1,0,0,1.0502729415893555,58.5,196.12625122070312)" opacity="1" style="display: block;">
<path stroke-linecap="round" stroke-linejoin="round" fill-opacity="0" class="color1" stroke="rgb(24,29,30)" stroke-opacity="1" stroke-width="2" d=" M39.650001525878906,72.8499984741211 C39.650001525878906,72.8499984741211 37.04999923706055,77.45099639892578 37.04999923706055,77.45099639892578 M31.649999618530273,72.05000305175781 C29.482999801635742,75.75 25.25,78.93399810791016 18.950000762939453,81.5999984741211"></path></g><g class="color1" transform="matrix(1,0,0,1.0925662517547607,58.5,193.4649658203125)" opacity="1" style="display: block;">
<path stroke-linecap="round" stroke-linejoin="round" fill-opacity="0" class="color1" stroke="rgb(24,29,30)" stroke-opacity="1" stroke-width="2" d=" M29.700000762939453,62 C25.867000579833984,69.53299713134766 19.566999435424805,73.56600189208984 10.800000190734863,74.0999984741211 M86,62.099998474121094 C87.4000015258789,69.56700134277344 94.19999694824219,74.38400268554688 106.4000015258789,76.55000305175781"></path></g><g class="color1" transform="matrix(1,0,0,1,58.5,199.1434326171875)" opacity="1" style="display: block;">
<path stroke-linecap="round" stroke-linejoin="round" fill-opacity="0" class="color1" stroke="rgb(24,29,30)" stroke-opacity="1" stroke-width="2" d=" M85.9000015258789,61.04999923706055 C85.76599884033203,63.016998291015625 83.04900360107422,64.51699829101562 77.75,65.55000305175781 C72.3489990234375,66.8499984741211 65.79900360107422,67.5 58.099998474121094,67.5 C51.56700134277344,67.5 45.882999420166016,67.03299713134766 41.04899978637695,66.0999984741211 C40.18299865722656,65.93399810791016 39.33300018310547,65.75 38.5,65.55000305175781 C33.03300094604492,64.51699829101562 30.298999786376953,63.1510009765625 30.298999786376953,61.45000076293945 C30.298999786376953,60.71699905395508 30.715999603271484,60.08300018310547 31.548999786376953,59.54999923706055 C31.850000381469727,59.31700134277344 32.233001708984375,59.11600112915039 32.70000076293945,58.95000076293945 C34.03300094604492,58.25 35.965999603271484,57.599998474121094 38.5,57 C43.900001525878906,55.83300018310547 50.43299865722656,55.25 58.099998474121094,55.25 C65.79900360107422,55.25 72.3489990234375,55.83300018310547 77.75,57 C80.28299713134766,57.599998474121094 82.23300170898438,58.25 83.5989990234375,58.95000076293945 C84,59.11600112915039 84.3489990234375,59.31700134277344 84.6500015258789,59.54999923706055 C85.28299713134766,60.04999923706055 85.69999694824219,60.54999923706055 85.9000015258789,61.04999923706055z"></path></g><g clip-path="url(#__lottie_element_128)" style="display: none;" transform="matrix(0.8853044509887695,-0.4650118947029114,0.4650118947029114,0.8853044509887695,140.77908325195312,91.69254302978516)" opacity="1"><g class="color2" transform="matrix(1,0,0,1,-76,133.5)" opacity="1" style="display: block;"><g class="color2" opacity="1" transform="matrix(1,0,0,1,86.80000305175781,-94.44999694824219)">
<path class="color2" fill="rgb(255,255,255)" fill-opacity="1" d=" M0,-6 C3.3113999366760254,-6 6,-3.3113999366760254 6,0 C6,3.3113999366760254 3.3113999366760254,6 0,6 C-3.3113999366760254,6 -6,3.3113999366760254 -6,0 C-6,-3.3113999366760254 -3.3113999366760254,-6 0,-6z"></path></g></g><g class="color1" transform="matrix(1,0,0,1,-76,133.5)" opacity="1" style="display: block;"><g class="color1" opacity="1" transform="matrix(1,0,0,1,86.80000305175781,-94.44999694824219)">
<path stroke-linecap="butt" stroke-linejoin="miter" fill-opacity="0" stroke-miterlimit="4" class="color1" stroke="rgb(24,28,29)" stroke-opacity="1" stroke-width="2" d=" M0,-6 C3.3113999366760254,-6 6,-3.3113999366760254 6,0 C6,3.3113999366760254 3.3113999366760254,6 0,6 C-3.3113999366760254,6 -6,3.3113999366760254 -6,0 C-6,-3.3113999366760254 -3.3113999366760254,-6 0,-6z"></path></g></g><g class="color1" clip-path="url(#__lottie_element_275)" style="display: none;" transform="matrix(1,0,0,1,0,0)" opacity="1"><g class="color1" transform="matrix(1,0,0,1,25,25)" opacity="1" style="display: none;"><g class="color1" opacity="1" transform="matrix(1,0,0,1,0,0)">
<path stroke-linecap="round" stroke-linejoin="round" fill-opacity="0" class="color1" stroke="rgb(25,29,30)" stroke-opacity="1" stroke-width="2" d=" M8.833000183105469,-15.288000106811523 C8.888999938964844,-15.317000389099121 8.944000244140625,-15.345999717712402 9,-15.375"></path></g></g><g class="color1" transform="matrix(1,0,0,1,30.125,27.375)" opacity="1" style="display: none;"><g class="color1" opacity="1" transform="matrix(1,0,0,1,0,0)">
<path stroke-linecap="round" stroke-linejoin="round" fill-opacity="0" class="color1" stroke="rgb(25,29,30)" stroke-opacity="1" stroke-width="2" d=" M10.526000022888184,-14.24899959564209 C10.763999938964844,-14.333000183105469 11.005000114440918,-14.416000366210938 11.25,-14.5"></path></g></g><g class="color1" transform="matrix(1,0,0,1,33.875,31.125)" opacity="1" style="display: block;"><g class="color1" opacity="1" transform="matrix(1,0,0,1,0,0)">
<path stroke-linecap="round" stroke-linejoin="round" fill-opacity="0" class="color1" stroke="rgb(25,29,30)" stroke-opacity="1" stroke-width="2" d=" M7.495999813079834,-12.319000244140625 C7.539000034332275,-12.338000297546387 7.581999778747559,-12.355999946594238 7.625,-12.375"></path></g></g></g><g class="color1" clip-path="url(#__lottie_element_262)" style="display: none;" transform="matrix(1,0,0,1,0,0)" opacity="1"><g class="color1" transform="matrix(1,0,0,1,25,25)" opacity="1" style="display: none;"><g class="color1" opacity="1" transform="matrix(1,0,0,1,0,0)">
<path stroke-linecap="round" stroke-linejoin="round" fill-opacity="0" class="color1" stroke="rgb(25,29,30)" stroke-opacity="1" stroke-width="2" d=" M8.767999649047852,-15.253999710083008 C8.845000267028809,-15.293999671936035 8.92199993133545,-15.335000038146973 9,-15.375"></path></g></g><g class="color1" transform="matrix(1,0,0,1,30.125,27.375)" opacity="1" style="display: none;"><g class="color1" opacity="1" transform="matrix(1,0,0,1,0,0)">
<path stroke-linecap="round" stroke-linejoin="round" fill-opacity="0" class="color1" stroke="rgb(25,29,30)" stroke-opacity="1" stroke-width="2" d="M0 0"></path></g></g><g class="color1" transform="matrix(1,0,0,1,33.875,31.125)" opacity="1" style="display: block;"><g class="color1" opacity="1" transform="matrix(1,0,0,1,0,0)">
<path stroke-linecap="round" stroke-linejoin="round" fill-opacity="0" class="color1" stroke="rgb(25,29,30)" stroke-opacity="1" stroke-width="2" d="M0 0"></path></g></g></g><g class="color1" clip-path="url(#__lottie_element_249)" style="display: none;" transform="matrix(1,0,0,1,0,0)" opacity="1"><g class="color1" transform="matrix(1,0,0,1,25,25)" opacity="1" style="display: none;"><g class="color1" opacity="1" transform="matrix(1,0,0,1,0,0)">
<path stroke-linecap="round" stroke-linejoin="round" fill-opacity="0" class="color1" stroke="rgb(25,29,30)" stroke-opacity="1" stroke-width="2" d=" M8.715999603271484,-15.22700023651123 C8.8100004196167,-15.276000022888184 8.904999732971191,-15.326000213623047 9,-15.375"></path></g></g><g class="color1" transform="matrix(1,0,0,1,30.125,27.375)" opacity="1" style="display: none;"><g class="color1" opacity="1" transform="matrix(1,0,0,1,0,0)">
<path stroke-linecap="round" stroke-linejoin="round" fill-opacity="0" class="color1" stroke="rgb(25,29,30)" stroke-opacity="1" stroke-width="2" d=" M6.61299991607666,-12.784000396728516 C8.02299976348877,-13.354000091552734 9.5600004196167,-13.920999526977539 11.25,-14.5"></path></g></g><g class="color1" transform="matrix(1,0,0,1,33.875,31.125)" opacity="1" style="display: block;"><g class="color1" opacity="1" transform="matrix(1,0,0,1,0,0)">
<path stroke-linecap="round" stroke-linejoin="round" fill-opacity="0" class="color1" stroke="rgb(25,29,30)" stroke-opacity="1" stroke-width="2" d="M0 0"></path></g></g></g><g class="color1" clip-path="url(#__lottie_element_236)" style="display: none;" transform="matrix(1,0,0,1,0,0)" opacity="1"><g class="color1" transform="matrix(1,0,0,1,25,25)" opacity="1" style="display: none;"><g class="color1" opacity="1" transform="matrix(1,0,0,1,0,0)">
<path stroke-linecap="round" stroke-linejoin="round" fill-opacity="0" class="color1" stroke="rgb(25,29,30)" stroke-opacity="1" stroke-width="2" d=" M8.833000183105469,-15.288000106811523 C8.888999938964844,-15.317000389099121 8.944000244140625,-15.345999717712402 9,-15.375"></path></g></g><g class="color1" transform="matrix(1,0,0,1,30.125,27.375)" opacity="1" style="display: none;"><g class="color1" opacity="1" transform="matrix(1,0,0,1,0,0)">
<path stroke-linecap="round" stroke-linejoin="round" fill-opacity="0" class="color1" stroke="rgb(25,29,30)" stroke-opacity="1" stroke-width="2" d=" M11.065999984741211,-14.437000274658203 C11.126999855041504,-14.458000183105469 11.189000129699707,-14.479000091552734 11.25,-14.5"></path></g></g><g class="color1" transform="matrix(1,0,0,1,33.875,31.125)" opacity="1" style="display: block;"><g class="color1" opacity="1" transform="matrix(1,0,0,1,0,0)">
<path stroke-linecap="round" stroke-linejoin="round" fill-opacity="0" class="color1" stroke="rgb(25,29,30)" stroke-opacity="1" stroke-width="2" d="M0 0"></path></g></g></g><g class="color1" clip-path="url(#__lottie_element_223)" style="display: none;" transform="matrix(1,0,0,1,0,0)" opacity="1"><g class="color1" transform="matrix(1,0,0,1,25,25)" opacity="1" style="display: block;"><g class="color1" opacity="1" transform="matrix(1,0,0,1,0,0)">
<path stroke-linecap="round" stroke-linejoin="round" fill-opacity="0" class="color1" stroke="rgb(25,29,30)" stroke-opacity="1" stroke-width="2" d="M0 0"></path></g></g><g class="color1" transform="matrix(1,0,0,1,30.125,27.375)" opacity="1" style="display: block;"><g class="color1" opacity="1" transform="matrix(1,0,0,1,0,0)">
<path stroke-linecap="round" stroke-linejoin="round" fill-opacity="0" class="color1" stroke="rgb(25,29,30)" stroke-opacity="1" stroke-width="2" d=" M10.435999870300293,-14.218000411987305 C10.704000473022461,-14.312000274658203 10.975000381469727,-14.406000137329102 11.25,-14.5"></path></g></g><g class="color1" transform="matrix(1,0,0,1,33.875,31.125)" opacity="1" style="display: block;"><g class="color1" opacity="1" transform="matrix(1,0,0,1,0,0)">
<path stroke-linecap="round" stroke-linejoin="round" fill-opacity="0" class="color1" stroke="rgb(25,29,30)" stroke-opacity="1" stroke-width="2" d=" M4.090000152587891,-10.770000457763672 C5.2129998207092285,-11.310999870300293 6.386000156402588,-11.83899974822998 7.625,-12.375"></path></g></g></g><g class="color1" clip-path="url(#__lottie_element_210)" style="display: block;" transform="matrix(1,0,0,1,0,0)" opacity="1"><g class="color1" transform="matrix(1,0,0,1,25,25)" opacity="1" style="display: none;"><g class="color1" opacity="1" transform="matrix(1,0,0,1,0,0)">
<path stroke-linecap="round" stroke-linejoin="round" fill-opacity="0" class="color1" stroke="rgb(25,29,30)" stroke-opacity="1" stroke-width="2" d=" M8.319999694824219,-15.017999649047852 C8.545000076293945,-15.13700008392334 8.770999908447266,-15.255999565124512 9,-15.375"></path></g></g><g class="color1" transform="matrix(1,0,0,1,30.125,27.375)" opacity="1" style="display: none;"><g class="color1" opacity="1" transform="matrix(1,0,0,1,0,0)">
<path stroke-linecap="round" stroke-linejoin="round" fill-opacity="0" class="color1" stroke="rgb(25,29,30)" stroke-opacity="1" stroke-width="2" d="M0 0"></path></g></g><g class="color1" transform="matrix(1,0,0,1,33.875,31.125)" opacity="1" style="display: block;"><g class="color1" opacity="1" transform="matrix(1,0,0,1,0,0)">
<path stroke-linecap="round" stroke-linejoin="round" fill-opacity="0" class="color1" stroke="rgb(25,29,30)" stroke-opacity="1" stroke-width="2" d="M0 0"></path></g></g></g><g class="color1" clip-path="url(#__lottie_element_197)" style="display: block;" transform="matrix(1,0,0,1,0,0)" opacity="1"><g class="color1" transform="matrix(1,0,0,1,25,25)" opacity="1" style="display: block;"><g class="color1" opacity="1" transform="matrix(1,0,0,1,0,0)">
<path stroke-linecap="round" stroke-linejoin="round" fill-opacity="0" class="color1" stroke="rgb(25,29,30)" stroke-opacity="1" stroke-width="2" d=" M2.6489999294281006,-11.697999954223633 C4.578999996185303,-12.954000473022461 6.684999942779541,-14.170999526977539 9,-15.375"></path></g></g><g class="color1" transform="matrix(1,0,0,1,30.125,27.375)" opacity="1" style="display: block;"><g class="color1" opacity="1" transform="matrix(1,0,0,1,0,0)">
<path stroke-linecap="round" stroke-linejoin="round" fill-opacity="0" class="color1" stroke="rgb(25,29,30)" stroke-opacity="1" stroke-width="2" d=" M-3.2690000534057617,-7.296999931335449 C0.3100000023841858,-10.12600040435791 4.589000225067139,-12.215999603271484 11.25,-14.5"></path></g></g><g class="color1" transform="matrix(1,0,0,1,33.875,31.125)" opacity="1" style="display: block;"><g class="color1" opacity="1" transform="matrix(1,0,0,1,0,0)">
<path stroke-linecap="round" stroke-linejoin="round" fill-opacity="0" class="color1" stroke="rgb(25,29,30)" stroke-opacity="1" stroke-width="2" d=" M-8.517999649047852,-1.7380000352859497 C-3.867000102996826,-6.611999988555908 0.4580000042915344,-9.17199993133545 6.14300012588501,-11.722999572753906"></path></g></g></g><g class="color1" clip-path="url(#__lottie_element_184)" style="display: block;" transform="matrix(1,0,0,1,0,0)" opacity="1"><g class="color1" transform="matrix(1,0,0,1,25,25)" opacity="1" style="display: block;"><g class="color1" opacity="1" transform="matrix(1,0,0,1,0,0)">
<path stroke-linecap="round" stroke-linejoin="round" fill-opacity="0" class="color1" stroke="rgb(25,29,30)" stroke-opacity="1" stroke-width="2" d=" M-12.875,4.375 C-12.875,4.375 -12.875,4.375 -12.875,4.375"></path></g></g><g class="color1" transform="matrix(1,0,0,1,30.125,27.375)" opacity="1" style="display: none;"><g class="color1" opacity="1" transform="matrix(1,0,0,1,0,0)">
<path stroke-linecap="round" stroke-linejoin="round" fill-opacity="0" class="color1" stroke="rgb(25,29,30)" stroke-opacity="1" stroke-width="2" d=" M-13.25,3.875 C-13.25,3.875 -13.25,3.875 -13.25,3.875"></path></g></g><g class="color1" style="display: none;"><g class="color1">
<path stroke-linecap="round" stroke-linejoin="round" fill-opacity="0" class="color1"></path></g></g></g><g class="color1" clip-path="url(#__lottie_element_171)" style="display: none;"><g class="color1" style="display: none;"><g class="color1">
<path stroke-linecap="round" stroke-linejoin="round" fill-opacity="0" class="color1"></path></g></g><g class="color1" style="display: none;"><g class="color1">
<path stroke-linecap="round" stroke-linejoin="round" fill-opacity="0" class="color1"></path></g></g><g class="color1" style="display: none;"><g class="color1">
<path stroke-linecap="round" stroke-linejoin="round" fill-opacity="0" class="color1"></path></g></g></g><g class="color1" clip-path="url(#__lottie_element_158)" style="display: none;"><g class="color1" style="display: none;"><g class="color1">
<path stroke-linecap="round" stroke-linejoin="round" fill-opacity="0" class="color1"></path></g></g><g class="color1" style="display: none;"><g class="color1">
<path stroke-linecap="round" stroke-linejoin="round" fill-opacity="0" class="color1"></path></g></g><g class="color1" style="display: none;"><g class="color1">
<path stroke-linecap="round" stroke-linejoin="round" fill-opacity="0" class="color1"></path></g></g></g><g class="color1" clip-path="url(#__lottie_element_145)" style="display: none;"><g class="color1" style="display: none;"><g class="color1">
<path stroke-linecap="round" stroke-linejoin="round" fill-opacity="0" class="color1"></path></g></g><g class="color1" style="display: none;"><g class="color1">
<path stroke-linecap="round" stroke-linejoin="round" fill-opacity="0" class="color1"></path></g></g><g class="color1" style="display: none;"><g class="color1">
<path stroke-linecap="round" stroke-linejoin="round" fill-opacity="0" class="color1"></path></g></g></g><g class="color1" clip-path="url(#__lottie_element_132)" style="display: none;"><g class="color1" style="display: none;"><g class="color1">
<path stroke-linecap="round" stroke-linejoin="round" fill-opacity="0" class="color1"></path></g></g><g class="color1" style="display: none;"><g class="color1">
<path stroke-linecap="round" stroke-linejoin="round" fill-opacity="0" class="color1"></path></g></g><g class="color1" style="display: none;"><g class="color1">
<path stroke-linecap="round" stroke-linejoin="round" fill-opacity="0" class="color1"></path></g></g></g></g><g class="color2" transform="matrix(0.5344134569168091,0,0,0.5344134569168091,101.63473510742188,116.81412506103516)" opacity="0.3306666666666672" style="display: block;"><g class="color2" opacity="1" transform="matrix(1,0,0,1,82.4489974975586,-96.0510025024414)">
<path class="color2" fill="rgb(255,255,255)" fill-opacity="1" d=" M0,-5.448999881744385 C3.00730299949646,-5.448999881744385 5.448999881744385,-3.00730299949646 5.448999881744385,0 C5.448999881744385,3.00730299949646 3.00730299949646,5.448999881744385 0,5.448999881744385 C-3.00730299949646,5.448999881744385 -5.448999881744385,3.00730299949646 -5.448999881744385,0 C-5.448999881744385,-3.00730299949646 -3.00730299949646,-5.448999881744385 0,-5.448999881744385z"></path></g></g><g class="color1" transform="matrix(0.5344134569168091,0,0,0.5344134569168091,101.63473510742188,116.81412506103516)" opacity="0.3306666666666672" style="display: block;"><g class="color1" opacity="1" transform="matrix(1,0,0,1,82.4489974975586,-96.0510025024414)">
<path stroke-linecap="butt" stroke-linejoin="miter" fill-opacity="0" stroke-miterlimit="4" class="color1" stroke="rgb(24,28,29)" stroke-opacity="1" stroke-width="2" d=" M0,-5.448999881744385 C3.00730299949646,-5.448999881744385 5.448999881744385,-3.00730299949646 5.448999881744385,0 C5.448999881744385,3.00730299949646 3.00730299949646,5.448999881744385 0,5.448999881744385 C-3.00730299949646,5.448999881744385 -5.448999881744385,3.00730299949646 -5.448999881744385,0 C-5.448999881744385,-3.00730299949646 -3.00730299949646,-5.448999881744385 0,-5.448999881744385z"></path></g></g><g class="color1" transform="matrix(1,0,0,1,150,150)" opacity="1" style="display: block;"><g class="color1" opacity="1" transform="matrix(1,0,0,1,0,0)">
<path stroke-linecap="round" stroke-linejoin="round" fill-opacity="0" class="color1" stroke="rgb(24,28,29)" stroke-opacity="1" stroke-width="2" d=" M78.67428588867188,58.808570861816406 C78.67428588867188,58.808570861816406 94.81571197509766,87.91714477539062 94.81571197509766,87.91714477539062 M-79.66143035888672,60.9471435546875 C-79.66143035888672,60.9471435546875 -95,91.75 -95,91.75"></path></g></g><g class="color1" transform="matrix(1,0,0,1,150,150)" opacity="1" style="display: block;"><g class="color1" opacity="1" transform="matrix(1,0,0,1,0,0)">
<path stroke-linecap="round" stroke-linejoin="round" fill-opacity="0" class="color1" stroke="rgb(24,28,29)" stroke-opacity="1" stroke-width="2" d=" M116.25,93 C116.25,93 75.12687683105469,82.3206558227539 75.12687683105469,82.3206558227539 C75.12687683105469,82.3206558227539 115.48875427246094,71.77192687988281 115.48875427246094,71.77192687988281 C115.48875427246094,71.77192687988281 76.10438537597656,60.719459533691406 76.10438537597656,60.719459533691406 M74,93 C74,93 116.11563110351562,82.8206558227539 116.11563110351562,82.8206558227539 C116.11563110351562,82.8206558227539 75.49625396728516,71.65254974365234 75.49625396728516,71.65254974365234 C75.49625396728516,71.65254974365234 116.62312316894531,60.72695541381836 116.62312316894531,60.72695541381836"></path></g></g><g clip-path="url(#__lottie_element_106)" transform="matrix(1.040385127067566,-0.02477405220270157,0.0235709547996521,0.9898610711097717,-10.896270751953125,7.939788818359375)" opacity="1" style="display: block;"><g class="color2" transform="matrix(1,0,0,1,151,151.5)" opacity="1" style="display: block;"><g class="color2" opacity="1" transform="matrix(1,0,0,1,-0.5210000276565552,3.6040000915527344)">
<path class="color2" fill="rgb(255,255,255)" fill-opacity="1" d=" M0,-52.10350036621094 C33.65403366088867,-52.10350036621094 60.97850036621094,-28.755922317504883 60.97850036621094,0 C60.97850036621094,28.755922317504883 33.65403366088867,52.10350036621094 0,52.10350036621094 C-33.65403366088867,52.10350036621094 -60.97850036621094,28.755922317504883 -60.97850036621094,0 C-60.97850036621094,-28.755922317504883 -33.65403366088867,-52.10350036621094 0,-52.10350036621094z"></path></g></g><g class="color1" transform="matrix(1,0,0,1,151,151.5)" opacity="1" style="display: block;"><g class="color1" opacity="1" transform="matrix(1,0,0,1,-0.5210000276565552,3.6040000915527344)">
<path stroke-linecap="butt" stroke-linejoin="miter" fill-opacity="0" stroke-miterlimit="4" class="color1" stroke="rgb(24,28,29)" stroke-opacity="1" stroke-width="2" d=" M0,-52.10350036621094 C33.65403366088867,-52.10350036621094 60.97850036621094,-28.755922317504883 60.97850036621094,0 C60.97850036621094,28.755922317504883 33.65403366088867,52.10350036621094 0,52.10350036621094 C-33.65403366088867,52.10350036621094 -60.97850036621094,28.755922317504883 -60.97850036621094,0 C-60.97850036621094,-28.755922317504883 -33.65403366088867,-52.10350036621094 0,-52.10350036621094z"></path></g></g></g><g class="color2" transform="matrix(1.0384408235549927,-0.02614540047943592,0.022229550406336784,0.8829114437103271,152.97328186035156,158.04742431640625)" opacity="1" style="display: block;"><g class="color2" opacity="1" transform="matrix(1,0,0,1,-0.5379999876022339,27.709999084472656)">
<path class="color2" fill="rgb(255,255,255)" fill-opacity="1" d=" M0,-45.26850128173828 C64.63107299804688,-45.26850128173828 117.10649871826172,-24.983686447143555 117.10649871826172,0 C117.10649871826172,24.983686447143555 64.63107299804688,45.26850128173828 0,45.26850128173828 C-64.63107299804688,45.26850128173828 -117.10649871826172,24.983686447143555 -117.10649871826172,0 C-117.10649871826172,-24.983686447143555 -64.63107299804688,-45.26850128173828 0,-45.26850128173828z"></path></g></g><g class="color1" transform="matrix(1.0384408235549927,-0.02614540047943592,0.022229550406336784,0.8829114437103271,152.97328186035156,158.04742431640625)" opacity="1" style="display: block;"><g class="color1" opacity="1" transform="matrix(1,0,0,1,-0.5379999876022339,27.709999084472656)">
<path stroke-linecap="butt" stroke-linejoin="miter" fill-opacity="0" stroke-miterlimit="4" class="color1" stroke="rgb(24,28,29)" stroke-opacity="1" stroke-width="2" d=" M0,-45.26850128173828 C64.63107299804688,-45.26850128173828 117.10649871826172,-24.983686447143555 117.10649871826172,0 C117.10649871826172,24.983686447143555 64.63107299804688,45.26850128173828 0,45.26850128173828 C-64.63107299804688,45.26850128173828 -117.10649871826172,24.983686447143555 -117.10649871826172,0 C-117.10649871826172,-24.983686447143555 -64.63107299804688,-45.26850128173828 0,-45.26850128173828z"></path></g></g><g clip-path="url(#__lottie_element_84)" transform="matrix(1,0,0,1,0,0)" opacity="1" style="display: block;"><g class="color1" transform="matrix(1,0,0,1,150,150)" opacity="1" style="display: block;"><g class="color1" opacity="1" transform="matrix(1,0,0,1,0,0)">
<path stroke-linecap="butt" stroke-linejoin="miter" fill-opacity="0" stroke-miterlimit="4" class="color1" stroke="rgb(24,28,29)" stroke-opacity="1" stroke-width="2" d=" M40,99 C40,99 38.5,93.5 39.25,93.5 C40,93.5 53.5,99 53.5,99 C53.5,99 48.39936065673828,84.37687683105469 49.14936065673828,84.37687683105469 C49.89936065673828,84.37687683105469 65.75749969482422,83.87687683105469 65.50749969482422,83.87687683105469 C65.25749969482422,83.87687683105469 65.5,98.75 65.5,98.75 C65.5,98.75 72,98.75 72,98.75"></path></g></g><g class="color1" transform="matrix(1,0,0,1,137.5,147.5)" opacity="1" style="display: block;"><g class="color1" opacity="1" transform="matrix(1,0,0,1,0,0)">
<path stroke-linecap="round" stroke-linejoin="round" fill-opacity="0" class="color1" stroke="rgb(24,28,29)" stroke-opacity="1" stroke-width="2" d=" M58.792293548583984,65.81206512451172 C58.792293548583984,65.81206512451172 64.69944763183594,74.06035614013672 64.69944763183594,74.06035614013672 C64.69944763183594,74.06035614013672 81.15576171875,67.80516815185547 81.15576171875,67.80516815185547 M71.41860961914062,65.38999938964844 C71.41860961914062,65.38999938964844 77.86250305175781,75.91373443603516 77.86250305175781,75.91373443603516 C77.86250305175781,75.91373443603516 91.43492889404297,76.37614440917969 91.43492889404297,76.37614440917969"></path></g></g><g class="color1" transform="matrix(0.9991008639335632,-0.04239581897854805,0.04239581897854805,0.9991008639335632,142.40032958984375,151.49440002441406)" opacity="1" style="display: block;"><g class="color1" opacity="1" transform="matrix(1,0,0,1,0,0)">
<path class="color1" fill="rgb(26,26,26)" fill-opacity="1" d=" M53.75,23 C42.75,23.25 39.5,32.5 39.75,39.25 C40.01300048828125,46.35599899291992 48,58.75 56.5,58.75 C65,58.75 70.75,43.5 70.25,36.25 C69.75700378417969,29.107999801635742 64.75,22.75 53.75,23z"></path></g></g><g class="color1" transform="matrix(0.9903407692909241,-0.13865485787391663,0.13865485787391663,0.9903407692909241,138.11346435546875,158.41305541992188)" opacity="1" style="display: block;"><g class="color1" opacity="1" transform="matrix(1,0,0,1,0,0)">
<path class="color1" fill="rgb(26,26,26)" fill-opacity="1" d=" M48.125,61.75 C44.09700012207031,64.59300231933594 46.125,86.875 51,86.25 C55.231998443603516,85.70700073242188 55.020999908447266,80.35700225830078 56.5,78.25 C60.625,72.375 64.625,65.875 62.75,63.25 C61.40999984741211,61.374000549316406 50.25,60.25 48.125,61.75z"></path></g></g></g><g class="color1" transform="matrix(1,0,0,1,150,150.125)" opacity="1" style="display: block;"><g class="color1" opacity="1" transform="matrix(1,0,0,1,-94.33300018310547,90.66699981689453)">
<path class="color1" fill="rgb(26,26,26)" fill-opacity="1" d=" M0,-3.9175000190734863 C2.1620683670043945,-3.9175000190734863 3.9175000190734863,-2.1620683670043945 3.9175000190734863,0 C3.9175000190734863,2.1620683670043945 2.1620683670043945,3.9175000190734863 0,3.9175000190734863 C-2.1620683670043945,3.9175000190734863 -3.9175000190734863,2.1620683670043945 -3.9175000190734863,0 C-3.9175000190734863,-2.1620683670043945 -2.1620683670043945,-3.9175000190734863 0,-3.9175000190734863z"></path></g></g><g class="color1" transform="matrix(1,0,0,1,179.1678466796875,159.5850067138672)" opacity="1" style="display: block;"><g class="color1" opacity="1" transform="matrix(1,0,0,1,-94.33300018310547,90.66699981689453)">
<path class="color1" fill="rgb(26,26,26)" fill-opacity="1" d=" M0,-3.9175000190734863 C2.1620683670043945,-3.9175000190734863 3.9175000190734863,-2.1620683670043945 3.9175000190734863,0 C3.9175000190734863,2.1620683670043945 2.1620683670043945,3.9175000190734863 0,3.9175000190734863 C-2.1620683670043945,3.9175000190734863 -3.9175000190734863,2.1620683670043945 -3.9175000190734863,0 C-3.9175000190734863,-2.1620683670043945 -2.1620683670043945,-3.9175000190734863 0,-3.9175000190734863z"></path></g></g><g class="color1" transform="matrix(1,0,0,1,338.875,147.61785888671875)" opacity="1" style="display: block;"><g class="color1" opacity="1" transform="matrix(1,0,0,1,-94.33300018310547,90.66699981689453)">
<path class="color1" fill="rgb(26,26,26)" fill-opacity="1" d=" M0,-3.9175000190734863 C2.1620683670043945,-3.9175000190734863 3.9175000190734863,-2.1620683670043945 3.9175000190734863,0 C3.9175000190734863,2.1620683670043945 2.1620683670043945,3.9175000190734863 0,3.9175000190734863 C-2.1620683670043945,3.9175000190734863 -3.9175000190734863,2.1620683670043945 -3.9175000190734863,0 C-3.9175000190734863,-2.1620683670043945 -2.1620683670043945,-3.9175000190734863 0,-3.9175000190734863z"></path></g></g><g class="color1" transform="matrix(1,0,0,1,150,150)" opacity="1" style="display: block;"><g class="color1" opacity="1" transform="matrix(1,0,0,1,0,0)">
<path stroke-linecap="round" stroke-linejoin="round" fill-opacity="0" class="color1" stroke="rgb(24,28,29)" stroke-opacity="1" stroke-width="2" d=" M-54.80571365356445,53.387142181396484 C-54.80571365356445,53.387142181396484 -64.56571197509766,99.3085708618164 -64.56571197509766,99.3085708618164"></path></g></g><g class="color1" transform="matrix(0.9997740983963013,-0.02125401608645916,0.021952226758003235,1.032617449760437,-3.871368408203125,-1.8510589599609375)" opacity="1" style="display: block;">
<path class="color1" fill="rgb(24,29,30)" fill-opacity="1" d=" M148.14999389648438,211.1999969482422 C139.5500030517578,211.1999969482422 132.1999969482422,211.4499969482422 126.0999984741211,211.9499969482422 C119.96700286865234,212.41700744628906 116.9000015258789,212.98300170898438 116.9000015258789,213.64999389648438 C116.9000015258789,214.3489990234375 119.96700286865234,214.93299865722656 126.0999984741211,215.39999389648438 C132.1999969482422,215.89999389648438 139.5500030517578,216.14999389648438 148.14999389648438,216.14999389648438 C156.7830047607422,216.14999389648438 164.13400268554688,215.89999389648438 170.1999969482422,215.39999389648438 C176.3000030517578,214.93299865722656 179.35000610351562,214.3489990234375 179.35000610351562,213.64999389648438 C179.35000610351562,212.98300170898438 176.3000030517578,212.41700744628906 170.1999969482422,211.9499969482422 C164.13400268554688,211.4499969482422 156.7830047607422,211.1999969482422 148.14999389648438,211.1999969482422z"></path></g><g class="color2" transform="matrix(1.1749999523162842,0,0,1.1749999523162842,160.4137725830078,148.76895141601562)" opacity="1" style="display: block;"><g class="color2" opacity="1" transform="matrix(1,0,0,1,-72.28600311279297,24.214000701904297)">
<path class="color2" fill="rgb(255,255,255)" fill-opacity="1" d=" M0,-7.714000225067139 C4.257356643676758,-7.714000225067139 7.714000225067139,-4.257356643676758 7.714000225067139,0 C7.714000225067139,4.257356643676758 4.257356643676758,7.714000225067139 0,7.714000225067139 C-4.257356643676758,7.714000225067139 -7.714000225067139,4.257356643676758 -7.714000225067139,0 C-7.714000225067139,-4.257356643676758 -4.257356643676758,-7.714000225067139 0,-7.714000225067139z"></path></g></g><g class="color1" transform="matrix(1.1749999523162842,0,0,1.1749999523162842,160.4137725830078,148.76895141601562)" opacity="1" style="display: block;"><g class="color1" opacity="1" transform="matrix(1,0,0,1,-72.28600311279297,24.214000701904297)">
<path stroke-linecap="butt" stroke-linejoin="miter" fill-opacity="0" stroke-miterlimit="4" class="color1" stroke="rgb(24,28,29)" stroke-opacity="1" stroke-width="8" d=" M0,-7.714000225067139 C4.257356643676758,-7.714000225067139 7.714000225067139,-4.257356643676758 7.714000225067139,0 C7.714000225067139,4.257356643676758 4.257356643676758,7.714000225067139 0,7.714000225067139 C-4.257356643676758,7.714000225067139 -7.714000225067139,4.257356643676758 -7.714000225067139,0 C-7.714000225067139,-4.257356643676758 -4.257356643676758,-7.714000225067139 0,-7.714000225067139z"></path></g></g><g class="color2" transform="matrix(1.1749999523162842,0,0,1.1749999523162842,235.35806274414062,145.5746612548828)" opacity="1" style="display: block;"><g class="color2" opacity="1" transform="matrix(1,0,0,1,-72.28600311279297,24.214000701904297)">
<path class="color2" fill="rgb(255,255,255)" fill-opacity="1" d=" M0,-7.714000225067139 C4.257356643676758,-7.714000225067139 7.714000225067139,-4.257356643676758 7.714000225067139,0 C7.714000225067139,4.257356643676758 4.257356643676758,7.714000225067139 0,7.714000225067139 C-4.257356643676758,7.714000225067139 -7.714000225067139,4.257356643676758 -7.714000225067139,0 C-7.714000225067139,-4.257356643676758 -4.257356643676758,-7.714000225067139 0,-7.714000225067139z"></path></g></g><g class="color1" transform="matrix(1.1749999523162842,0,0,1.1749999523162842,235.35806274414062,145.5746612548828)" opacity="1" style="display: block;"><g class="color1" opacity="1" transform="matrix(1,0,0,1,-72.28600311279297,24.214000701904297)">
<path stroke-linecap="butt" stroke-linejoin="miter" fill-opacity="0" stroke-miterlimit="4" class="color1" stroke="rgb(24,28,29)" stroke-opacity="1" stroke-width="8" d=" M0,-7.714000225067139 C4.257356643676758,-7.714000225067139 7.714000225067139,-4.257356643676758 7.714000225067139,0 C7.714000225067139,4.257356643676758 4.257356643676758,7.714000225067139 0,7.714000225067139 C-4.257356643676758,7.714000225067139 -7.714000225067139,4.257356643676758 -7.714000225067139,0 C-7.714000225067139,-4.257356643676758 -4.257356643676758,-7.714000225067139 0,-7.714000225067139z"></path></g></g><g class="color2" transform="matrix(1.1749999523162842,0,0,1.1749999523162842,312.14093017578125,145.7061004638672)" opacity="1" style="display: block;"><g class="color2" opacity="1" transform="matrix(1,0,0,1,-72.28600311279297,24.214000701904297)">
<path class="color2" fill="rgb(255,255,255)" fill-opacity="1" d=" M0,-7.714000225067139 C4.257356643676758,-7.714000225067139 7.714000225067139,-4.257356643676758 7.714000225067139,0 C7.714000225067139,4.257356643676758 4.257356643676758,7.714000225067139 0,7.714000225067139 C-4.257356643676758,7.714000225067139 -7.714000225067139,4.257356643676758 -7.714000225067139,0 C-7.714000225067139,-4.257356643676758 -4.257356643676758,-7.714000225067139 0,-7.714000225067139z"></path></g></g><g class="color1" transform="matrix(1.1749999523162842,0,0,1.1749999523162842,312.14093017578125,145.7061004638672)" opacity="1" style="display: block;"><g class="color1" opacity="1" transform="matrix(1,0,0,1,-72.28600311279297,24.214000701904297)">
<path stroke-linecap="butt" stroke-linejoin="miter" fill-opacity="0" stroke-miterlimit="4" class="color1" stroke="rgb(24,28,29)" stroke-opacity="1" stroke-width="8" d=" M0,-7.714000225067139 C4.257356643676758,-7.714000225067139 7.714000225067139,-4.257356643676758 7.714000225067139,0 C7.714000225067139,4.257356643676758 4.257356643676758,7.714000225067139 0,7.714000225067139 C-4.257356643676758,7.714000225067139 -7.714000225067139,4.257356643676758 -7.714000225067139,0 C-7.714000225067139,-4.257356643676758 -4.257356643676758,-7.714000225067139 0,-7.714000225067139z"></path></g></g><g clip-path="url(#__lottie_element_38)" style="display: none;" transform="matrix(1,0,0,1,0,0)" opacity="1"><g class="color1" transform="matrix(1,0,0,1,150,150)" opacity="1" style="display: block;"><g class="color1" opacity="1" transform="matrix(1,0,0,1,0,0)">
<path stroke-linecap="butt" stroke-linejoin="miter" fill-opacity="0" stroke-miterlimit="4" class="color1" stroke="rgb(24,28,29)" stroke-opacity="1" stroke-width="2" d=" M-40.23899841308594,78.7490005493164 C-40.53200149536133,72.16600036621094 -40.75,67.25 -40.75,67.25"></path></g></g><g class="color1" transform="matrix(1,0,0,1,150,150)" opacity="1" style="display: block;"><g class="color1" opacity="1" transform="matrix(1,0,0,1,0,0)">
<path stroke-linecap="butt" stroke-linejoin="miter" fill-opacity="0" stroke-miterlimit="4" class="color1" stroke="rgb(24,28,29)" stroke-opacity="1" stroke-width="2" d=" M-33,67.1449966430664 C-33,58.332000732421875 -33,51.75 -33,51.75"></path></g></g><g class="color1" transform="matrix(1,0,0,1,150,150)" opacity="1" style="display: block;"><g class="color1" opacity="1" transform="matrix(1,0,0,1,0,0)">
<path stroke-linecap="round" stroke-linejoin="round" fill-opacity="0" class="color1" stroke="rgb(24,28,29)" stroke-opacity="1" stroke-width="2" d=" M-26.325000762939453,74.58499908447266 C-25.996000289916992,67.38099670410156 -25.75,62 -25.75,62"></path></g></g></g><g clip-path="url(#__lottie_element_4)" style="display: none;" transform="matrix(2.380000114440918,0,0,2.380000114440918,-162.84002685546875,-360.5700378417969)" opacity="1"><g class="color1" transform="matrix(0.10175203531980515,0,0,0.10175203531980515,110.92621612548828,195.58609008789062)" opacity="1" style="display: none;"><g class="color1" opacity="1" transform="matrix(1,0,0,1,-43.45399856567383,50.54600143432617)">
<path class="color1" fill="rgb(25,29,30)" fill-opacity="1" d=" M0,-6.046500205993652 C3.3370635509490967,-6.046500205993652 6.046500205993652,-3.3370635509490967 6.046500205993652,0 C6.046500205993652,3.3370635509490967 3.3370635509490967,6.046500205993652 0,6.046500205993652 C-3.3370635509490967,6.046500205993652 -6.046500205993652,3.3370635509490967 -6.046500205993652,0 C-6.046500205993652,-3.3370635509490967 -3.3370635509490967,-6.046500205993652 0,-6.046500205993652z"></path></g></g><g class="color1" transform="matrix(0.1002097800374031,0,0,0.1002097800374031,115.85912322998047,198.1643524169922)" opacity="1" style="display: none;"><g class="color1" opacity="1" transform="matrix(1,0,0,1,-43.45399856567383,50.54600143432617)">
<path class="color1" fill="rgb(25,29,30)" fill-opacity="1" d=" M0,-6.046500205993652 C3.3370635509490967,-6.046500205993652 6.046500205993652,-3.3370635509490967 6.046500205993652,0 C6.046500205993652,3.3370635509490967 3.3370635509490967,6.046500205993652 0,6.046500205993652 C-3.3370635509490967,6.046500205993652 -6.046500205993652,3.3370635509490967 -6.046500205993652,0 C-6.046500205993652,-3.3370635509490967 -3.3370635509490967,-6.046500205993652 0,-6.046500205993652z"></path></g></g><g class="color1" transform="matrix(0.14165526628494263,0,0,0.14165526628494263,120.16200256347656,191.0609893798828)" opacity="1" style="display: none;"><g class="color1" opacity="1" transform="matrix(1,0,0,1,-43.45399856567383,50.54600143432617)">
<path class="color1" fill="rgb(25,29,30)" fill-opacity="1" d=" M0,-6.046500205993652 C3.3370635509490967,-6.046500205993652 6.046500205993652,-3.3370635509490967 6.046500205993652,0 C6.046500205993652,3.3370635509490967 3.3370635509490967,6.046500205993652 0,6.046500205993652 C-3.3370635509490967,6.046500205993652 -6.046500205993652,3.3370635509490967 -6.046500205993652,0 C-6.046500205993652,-3.3370635509490967 -3.3370635509490967,-6.046500205993652 0,-6.046500205993652z"></path></g></g><g class="color1" transform="matrix(0.11265110224485397,0,0,0.11265110224485397,127.65032196044922,190.282958984375)" opacity="1" style="display: none;"><g class="color1" opacity="1" transform="matrix(1,0,0,1,-43.45399856567383,50.54600143432617)">
<path class="color1" fill="rgb(25,29,30)" fill-opacity="1" d=" M0,-6.046500205993652 C3.3370635509490967,-6.046500205993652 6.046500205993652,-3.3370635509490967 6.046500205993652,0 C6.046500205993652,3.3370635509490967 3.3370635509490967,6.046500205993652 0,6.046500205993652 C-3.3370635509490967,6.046500205993652 -6.046500205993652,3.3370635509490967 -6.046500205993652,0 C-6.046500205993652,-3.3370635509490967 -3.3370635509490967,-6.046500205993652 0,-6.046500205993652z"></path></g></g><g class="color1" transform="matrix(0.10000000149011612,0,0,0.10000000149011612,127.3499984741211,200.6750030517578)" opacity="1" style="display: none;"><g class="color1" opacity="1" transform="matrix(1,0,0,1,-43.45399856567383,50.54600143432617)">
<path class="color1" fill="rgb(25,29,30)" fill-opacity="1" d=" M0,-6.046500205993652 C3.3370635509490967,-6.046500205993652 6.046500205993652,-3.3370635509490967 6.046500205993652,0 C6.046500205993652,3.3370635509490967 3.3370635509490967,6.046500205993652 0,6.046500205993652 C-3.3370635509490967,6.046500205993652 -6.046500205993652,3.3370635509490967 -6.046500205993652,0 C-6.046500205993652,-3.3370635509490967 -3.3370635509490967,-6.046500205993652 0,-6.046500205993652z"></path></g></g><g class="color1" transform="matrix(0.10000059753656387,0,0,0.10000059753656387,137.3500213623047,196.6749725341797)" opacity="1" style="display: none;"><g class="color1" opacity="1" transform="matrix(1,0,0,1,-43.45399856567383,50.54600143432617)">
<path class="color1" fill="rgb(25,29,30)" fill-opacity="1" d=" M0,-6.046500205993652 C3.3370635509490967,-6.046500205993652 6.046500205993652,-3.3370635509490967 6.046500205993652,0 C6.046500205993652,3.3370635509490967 3.3370635509490967,6.046500205993652 0,6.046500205993652 C-3.3370635509490967,6.046500205993652 -6.046500205993652,3.3370635509490967 -6.046500205993652,0 C-6.046500205993652,-3.3370635509490967 -3.3370635509490967,-6.046500205993652 0,-6.046500205993652z"></path></g></g><g class="color1" transform="matrix(0.10000000149011612,0,0,0.10000000149011612,127.3499984741211,199.9250030517578)" opacity="1" style="display: none;"><g class="color1" opacity="1" transform="matrix(1,0,0,1,-43.45399856567383,50.54600143432617)">
<path class="color1" fill="rgb(25,29,30)" fill-opacity="1" d=" M0,-6.046500205993652 C3.3370635509490967,-6.046500205993652 6.046500205993652,-3.3370635509490967 6.046500205993652,0 C6.046500205993652,3.3370635509490967 3.3370635509490967,6.046500205993652 0,6.046500205993652 C-3.3370635509490967,6.046500205993652 -6.046500205993652,3.3370635509490967 -6.046500205993652,0 C-6.046500205993652,-3.3370635509490967 -3.3370635509490967,-6.046500205993652 0,-6.046500205993652z"></path></g></g><g class="color1" transform="matrix(0.15613287687301636,0,0,0.15613287687301636,122.29177856445312,195.07626342773438)" opacity="1" style="display: none;"><g class="color1" opacity="1" transform="matrix(1,0,0,1,-43.45399856567383,50.54600143432617)">
<path class="color1" fill="rgb(25,29,30)" fill-opacity="1" d=" M0,-6.046500205993652 C3.3370635509490967,-6.046500205993652 6.046500205993652,-3.3370635509490967 6.046500205993652,0 C6.046500205993652,3.3370635509490967 3.3370635509490967,6.046500205993652 0,6.046500205993652 C-3.3370635509490967,6.046500205993652 -6.046500205993652,3.3370635509490967 -6.046500205993652,0 C-6.046500205993652,-3.3370635509490967 -3.3370635509490967,-6.046500205993652 0,-6.046500205993652z"></path></g></g><g class="color1" transform="matrix(0.10263154655694962,0,0,0.10263154655694962,102.46446990966797,197.29144287109375)" opacity="1" style="display: none;"><g class="color1" opacity="1" transform="matrix(1,0,0,1,-43.45399856567383,50.54600143432617)">
<path class="color1" fill="rgb(25,29,30)" fill-opacity="1" d=" M0,-6.046500205993652 C3.3370635509490967,-6.046500205993652 6.046500205993652,-3.3370635509490967 6.046500205993652,0 C6.046500205993652,3.3370635509490967 3.3370635509490967,6.046500205993652 0,6.046500205993652 C-3.3370635509490967,6.046500205993652 -6.046500205993652,3.3370635509490967 -6.046500205993652,0 C-6.046500205993652,-3.3370635509490967 -3.3370635509490967,-6.046500205993652 0,-6.046500205993652z"></path></g></g><g class="color1" transform="matrix(0.11623011529445648,0,0,0.11623011529445648,145.55601501464844,197.101318359375)" opacity="1" style="display: none;"><g class="color1" opacity="1" transform="matrix(1,0,0,1,-43.45399856567383,50.54600143432617)">
<path class="color1" fill="rgb(25,29,30)" fill-opacity="1" d=" M0,-6.046500205993652 C3.3370635509490967,-6.046500205993652 6.046500205993652,-3.3370635509490967 6.046500205993652,0 C6.046500205993652,3.3370635509490967 3.3370635509490967,6.046500205993652 0,6.046500205993652 C-3.3370635509490967,6.046500205993652 -6.046500205993652,3.3370635509490967 -6.046500205993652,0 C-6.046500205993652,-3.3370635509490967 -3.3370635509490967,-6.046500205993652 0,-6.046500205993652z"></path></g></g></g></g></svg>
